<svg width="20" height="36" viewBox="0 0 20 36" fill="none" xmlns="http://www.w3.org/2000/svg">
<path d="M17.7868 23.528L17.8428 20.8335C17.8498 20.5186 17.6469 20.2317 17.3389 20.1407L14.7564 19.3638L13.2167 17.1453C13.1957 17.1173 13.1817 17.0963 13.1608 17.0753C12.9718 15.6826 11.922 14.5558 10.5643 14.2619V13.268H12.3489C12.3909 13.268 12.4329 13.2611 12.4819 13.2541C12.4959 13.2541 12.5099 13.2471 12.5239 13.2401C12.5519 13.2331 12.5799 13.2261 12.6079 13.2121C12.6219 13.2051 12.6359 13.1981 12.6569 13.1911C12.6778 13.1771 12.7058 13.1701 12.7268 13.1561C12.7408 13.1491 12.7548 13.1351 12.7758 13.1281C12.7828 13.1211 12.7968 13.1141 12.8038 13.1071L16.2191 10.3706L16.2471 10.3426C16.2681 10.3286 16.2821 10.3076 16.3031 10.2936C16.3171 10.2796 16.3311 10.2587 16.3451 10.2447C16.3591 10.2237 16.3731 10.2097 16.3871 10.1887C16.4011 10.1677 16.4081 10.1467 16.4221 10.1257C16.4291 10.1047 16.4431 10.0837 16.4501 10.0627L16.4711 9.9997C16.4781 9.97871 16.4781 9.95771 16.4851 9.93672C16.4921 9.91572 16.4921 9.88773 16.4921 9.86673C16.4921 9.85273 16.4991 9.84573 16.4991 9.83174V1.07649C16.4991 0.684566 16.1841 0.369629 15.7922 0.369629H3.95759C3.56567 0.369629 3.25073 0.684566 3.25073 1.07649V9.82474C3.25073 9.83874 3.25073 9.84573 3.25773 9.85973C3.25773 9.88773 3.26473 9.90872 3.26473 9.92972C3.27173 9.95071 3.27173 9.97171 3.27873 9.9927L3.29972 10.0557C3.30672 10.0767 3.31372 10.0977 3.32772 10.1187C3.33472 10.1397 3.34871 10.1607 3.36271 10.1817C3.37671 10.2027 3.39071 10.2237 3.4047 10.2377C3.4187 10.2587 3.4327 10.2726 3.44669 10.2866C3.46069 10.3076 3.48169 10.3216 3.50268 10.3356C3.50968 10.3426 3.51668 10.3566 3.53068 10.3636L6.939 13.1001C6.94599 13.1071 6.95999 13.1141 6.96699 13.1211C6.98099 13.1351 6.99498 13.1421 7.01598 13.1491C7.03698 13.1631 7.05797 13.1771 7.08597 13.1841C7.09996 13.1911 7.11396 13.1981 7.13496 13.2051C7.16295 13.2121 7.19094 13.2261 7.21894 13.2331C7.23294 13.2401 7.24693 13.2401 7.26093 13.2471C7.30292 13.2541 7.34491 13.2611 7.3939 13.2611H9.17855V14.2549C7.82082 14.5488 6.77103 15.6756 6.58207 17.0683C6.56107 17.0893 6.54007 17.1103 6.52608 17.1383L4.98639 19.3568L2.4039 20.1337C2.10296 20.2247 1.893 20.5046 1.9 20.8265L1.95599 23.528L0.325318 25.6766C0.233304 25.7999 0.183594 25.9496 0.183594 26.1035C0.183594 26.2573 0.233304 26.4071 0.325318 26.5304L1.95599 28.679L1.9 31.3734C1.893 31.6884 2.09596 31.9753 2.4039 32.0663L4.95839 32.8501L6.49808 35.0687C6.63106 35.2647 6.85501 35.3696 7.07897 35.3696C7.15595 35.3696 7.23294 35.3556 7.30992 35.3276L9.85741 34.4318L12.4049 35.3276C12.7058 35.4326 13.0348 35.3276 13.2167 35.0617L14.7564 32.8431L17.3389 32.0663C17.6399 31.9753 17.8498 31.6954 17.8428 31.3734L17.7868 28.679L19.4175 26.5304C19.6065 26.2784 19.6065 25.9285 19.4175 25.6766L17.7868 23.528ZM8.17075 11.8543V1.78335H11.5441V11.8543H8.17075ZM15.0504 9.48181L12.9508 11.1615V1.78335H15.0504V9.48181ZM6.75703 1.78335V11.1685L4.65745 9.48881V1.79034H6.75703V1.78335ZM9.85041 15.5986H9.85741C10.7742 15.5986 11.5441 16.2495 11.733 17.1173L9.85741 17.7751L7.97479 17.1173C8.16375 16.2495 8.9336 15.5986 9.85041 15.5986ZM16.5131 28.0281C16.4151 28.1541 16.3661 28.308 16.3661 28.469L16.4151 30.8765L14.1056 31.5694C13.9516 31.6184 13.8186 31.7094 13.7276 31.8423L12.3559 33.8229L10.0814 33.0251C9.9274 32.9691 9.76643 32.9691 9.61246 33.0251L7.33792 33.8229L5.96619 31.8423C5.87521 31.7094 5.74223 31.6114 5.58827 31.5694L3.27873 30.8765L3.32772 28.469C3.32772 28.308 3.27873 28.1541 3.18075 28.0281L1.72504 26.1105L3.18075 24.1929C3.27873 24.0669 3.32772 23.9129 3.32772 23.752L3.27873 21.3444L5.58827 20.6516C5.74223 20.6026 5.87521 20.5116 5.96619 20.3786L7.33792 18.398L9.61246 19.1959C9.76643 19.2519 9.9274 19.2519 10.0814 19.1959L12.3559 18.398L13.7276 20.3786C13.8186 20.5116 13.9516 20.6096 14.1056 20.6516L16.4151 21.3444L16.3661 23.752C16.3661 23.9129 16.4151 24.0669 16.5131 24.1929L17.9688 26.1105L16.5131 28.0281Z" fill="white"/>
<path d="M9.85749 19.7559C6.3582 19.7559 3.50977 22.6043 3.50977 26.1036C3.50977 29.6029 6.3582 32.4513 9.85749 32.4513C13.3568 32.4513 16.2052 29.6029 16.2052 26.1036C16.2052 22.6043 13.3568 19.7559 9.85749 19.7559ZM9.85749 31.0446C7.13504 31.0446 4.91648 28.826 4.91648 26.1036C4.91648 23.3811 7.13504 21.1626 9.85749 21.1626C12.58 21.1626 14.7985 23.3811 14.7985 26.1036C14.7985 28.826 12.58 31.0446 9.85749 31.0446Z" fill="white"/>
</svg>
