<svg width="33" height="32" viewBox="0 0 33 32" fill="none" xmlns="http://www.w3.org/2000/svg">
<path d="M14.6892 1.724C15.1424 0.900527 16.1461 0.618384 16.9311 1.09381L19.6226 2.72398C20.4076 3.19941 20.6765 4.25238 20.2233 5.07585L6.35424 30.276C5.90104 31.0994 4.8973 31.3816 4.11233 30.9062L1.42081 29.276C0.635844 28.8006 0.366893 27.7476 0.820095 26.9241L14.6892 1.724Z" fill="white"/>
<path d="M20.6735 5.35852C21.1267 4.53505 22.1305 4.25291 22.9155 4.72834L25.607 6.3585C26.3919 6.83393 26.6609 7.8869 26.2077 8.71037L19.4169 21.0493C18.9637 21.8728 17.9599 22.1549 17.175 21.6795L14.4834 20.0493C13.6985 19.5739 13.4295 18.5209 13.8827 17.6975L20.6735 5.35852Z" fill="white"/>
<path d="M26.7799 8.71417C27.1549 8.03268 27.9856 7.79919 28.6352 8.19265L30.8558 9.53755C31.5054 9.93101 31.728 10.8024 31.3529 11.4839L29.1525 15.4821C28.7774 16.1636 27.9467 16.3971 27.2971 16.0037L25.0766 14.6588C24.4269 14.2653 24.2044 13.3939 24.5794 12.7124L26.7799 8.71417Z" fill="white"/>
<path fill-rule="evenodd" clip-rule="evenodd" d="M24.9196 15.0381C24.2605 14.6368 23.4178 14.875 23.0373 15.5701L21.4374 18.4927C21.0569 19.1878 21.2827 20.0766 21.9417 20.4779L22.6896 20.9333L20.1953 23.3351C20.2529 23.3659 20.3215 23.3751 20.3905 23.3556L25.0579 22.0415C25.0777 22.0359 25.0965 22.0283 25.1143 22.0189C25.5021 21.9472 25.8582 21.7016 26.0705 21.3139L27.6704 18.3912C28.0509 17.6961 27.8251 16.8073 27.1661 16.406L24.9196 15.0381Z" fill="white"/>
</svg>
