<svg width="66" height="22" viewBox="0 0 66 22" fill="none" xmlns="http://www.w3.org/2000/svg">
<g clip-path="url(#clip0_572_737)">
<path d="M20.3715 0H1.62422C0.726172 0 0 0.708984 0 1.58555V20.4102C0 21.2867 0.726172 22 1.62422 22H20.3715C21.2695 22 22 21.2867 22 20.4145V1.58555C22 0.708984 21.2695 0 20.3715 0ZM6.52695 18.7473H3.26133V8.2457H6.52695V18.7473ZM4.89414 6.81484C3.8457 6.81484 2.99922 5.96836 2.99922 4.92422C2.99922 3.88008 3.8457 3.03359 4.89414 3.03359C5.93828 3.03359 6.78477 3.88008 6.78477 4.92422C6.78477 5.96406 5.93828 6.81484 4.89414 6.81484ZM18.7473 18.7473H15.4859V13.6426C15.4859 12.4266 15.4645 10.8582 13.7887 10.8582C12.0914 10.8582 11.8336 12.1859 11.8336 13.5566V18.7473H8.57656V8.2457H11.7047V9.68086H11.7477C12.1816 8.85586 13.2473 7.98359 14.8328 7.98359C18.1371 7.98359 18.7473 10.1578 18.7473 12.9852V18.7473V18.7473Z" fill="#FFCA42"/>
</g>
<g clip-path="url(#clip1_572_737)">
<path fill-rule="evenodd" clip-rule="evenodd" d="M55 0.458313C52.3886 0.459668 49.8629 1.38457 47.8744 3.06763C45.8859 4.75069 44.5643 7.08216 44.146 9.64515C43.7277 12.2081 44.2399 14.8355 45.591 17.0575C46.9421 19.2794 49.044 20.9511 51.521 21.7735C52.0674 21.875 52.2732 21.5363 52.2732 21.2483C52.2732 20.9603 52.2623 20.1254 52.2587 19.2126C49.1985 19.8737 48.5519 17.9213 48.5519 17.9213C48.0528 16.6535 47.3315 16.3202 47.3315 16.3202C46.3333 15.6429 47.4062 15.6555 47.4062 15.6555C48.5119 15.7334 49.0929 16.7839 49.0929 16.7839C50.0729 18.4555 51.6667 17.972 52.2933 17.6894C52.3916 16.9813 52.6776 16.4995 52.9927 16.226C50.5483 15.9507 47.98 15.0126 47.98 10.8216C47.9648 9.73471 48.3705 8.68361 49.1129 7.88577C49 7.61048 48.623 6.49844 49.2204 4.98796C49.2204 4.98796 50.1439 4.69456 52.2459 6.10905C54.0489 5.6188 55.9511 5.6188 57.7541 6.10905C59.8543 4.69456 60.776 4.98796 60.776 4.98796C61.3752 6.49482 60.9982 7.60686 60.8853 7.88577C61.6301 8.68374 62.0366 9.73668 62.02 10.8252C62.02 15.0253 59.4463 15.9507 56.9982 16.2206C57.3916 16.5611 57.7432 17.2258 57.7432 18.2473C57.7432 19.7107 57.7304 20.8879 57.7304 21.2483C57.7304 21.5399 57.929 21.8804 58.4863 21.7735C60.9636 20.951 63.0657 19.279 64.4168 17.0567C65.7679 14.8344 66.2798 12.2066 65.861 9.64336C65.4422 7.08013 64.12 4.74864 62.1308 3.06587C60.1417 1.3831 57.6153 0.458809 55.0036 0.458313H55Z" fill="#FFCA42"/>
<path d="M51.3585 18.3107C51.3585 18.3994 51.2565 18.4755 51.1253 18.4773C50.9942 18.4791 50.8867 18.4066 50.8867 18.3179C50.8867 18.2292 50.9887 18.1531 51.1199 18.1513C51.251 18.1495 51.3585 18.2201 51.3585 18.3107Z" fill="#FFCA42"/>
<path d="M52.1965 18.1712C52.2129 18.26 52.1219 18.3523 51.9907 18.3741C51.8596 18.3958 51.7448 18.3433 51.7284 18.2564C51.712 18.1694 51.8067 18.0752 51.9342 18.0517C52.0617 18.0282 52.1801 18.0825 52.1965 18.1712Z" fill="#FFCA42"/>
<path d="M50.4593 18.2491C50.432 18.3342 50.3081 18.3723 50.1843 18.336C50.0604 18.2998 49.9784 18.1984 50.0021 18.1115C50.0258 18.0245 50.1515 17.9847 50.2772 18.0245C50.4029 18.0644 50.483 18.1604 50.4593 18.2491Z" fill="#FFCA42"/>
<path d="M49.6346 17.8941C49.5745 17.9611 49.4525 17.943 49.3523 17.8525C49.2521 17.7619 49.2284 17.6388 49.2885 17.5735C49.3487 17.5083 49.4707 17.5265 49.5745 17.6152C49.6783 17.704 49.6984 17.8289 49.6346 17.8941V17.8941Z" fill="#FFCA42"/>
<path d="M49.0458 17.2855C48.9784 17.3326 48.8636 17.2856 48.7999 17.1914C48.7823 17.1745 48.7682 17.1542 48.7587 17.1318C48.7491 17.1094 48.7441 17.0853 48.7441 17.061C48.7441 17.0366 48.7491 17.0125 48.7587 16.9901C48.7682 16.9677 48.7823 16.9475 48.7999 16.9306C48.8673 16.8853 48.982 16.9306 49.0458 17.0229C49.1095 17.1153 49.1114 17.2385 49.0458 17.2855V17.2855Z" fill="#FFCA42"/>
<path d="M48.6123 16.6571C48.5746 16.676 48.5314 16.6813 48.4902 16.672C48.449 16.6628 48.4123 16.6396 48.3864 16.6064C48.3154 16.5303 48.3008 16.4253 48.3554 16.3782C48.4101 16.3311 48.5085 16.3528 48.5795 16.4289C48.6505 16.505 48.6669 16.61 48.6123 16.6571Z" fill="#FFCA42"/>
<path d="M48.1659 16.1627C48.1422 16.217 48.0548 16.2333 47.9838 16.1953C47.9127 16.1573 47.8599 16.0866 47.8854 16.0305C47.9109 15.9743 47.9965 15.9599 48.0676 15.9979C48.1386 16.0359 48.1932 16.1084 48.1659 16.1627Z" fill="#FFCA42"/>
</g>
<defs>
<clipPath id="clip0_572_737">
<rect width="22" height="22" fill="white"/>
</clipPath>
<clipPath id="clip1_572_737">
<rect width="22" height="22" fill="white" transform="translate(44)"/>
</clipPath>
</defs>
</svg>
