<svg width="25" height="25" viewBox="0 0 25 25" fill="none" xmlns="http://www.w3.org/2000/svg">
<path d="M12.3865 0.0837402C5.77953 0.0837402 0.386719 5.20383 0.386719 11.5381C0.386719 14.3487 1.49124 17.0427 3.43793 19.1339L2.57941 23.4315C2.56004 23.5285 2.56741 23.6289 2.60071 23.722C2.63402 23.8151 2.69201 23.8974 2.76849 23.9601C2.84497 24.0228 2.93705 24.0635 3.03489 24.0779C3.13273 24.0923 3.23264 24.0799 3.32394 24.0418L7.8964 22.1371C9.32492 22.688 10.8445 22.9924 12.3865 22.9924C18.9935 22.9924 24.3863 17.8723 24.3863 11.5381C24.3863 5.20383 18.9935 0.0837402 12.3865 0.0837402ZM12.3865 1.17463C18.4317 1.17463 23.2954 5.82291 23.2954 11.5381C23.2954 17.2532 18.4317 21.9015 12.3865 21.9015C10.9013 21.9015 9.43182 21.6124 8.06876 21.0544C7.93518 20.9996 7.78533 21 7.65204 21.0555L3.8492 22.64L4.55719 19.0985C4.57457 19.0113 4.57038 18.9212 4.545 18.8361C4.51962 18.7509 4.47381 18.6732 4.41155 18.6098C2.52268 16.6871 1.47706 14.1611 1.47706 11.5381C1.47706 5.82291 6.34188 1.17463 12.3865 1.17463Z" fill="#42446E"/>
<path d="M11.3107 7.71995C11.2364 7.71784 11.1625 7.73093 11.0934 7.75841C11.0244 7.78589 10.9617 7.82718 10.9092 7.87976L5.45476 13.3342C5.36786 13.4211 5.31283 13.5347 5.2986 13.6568C5.28436 13.7788 5.31175 13.9021 5.37633 14.0066C5.4409 14.1112 5.53888 14.1908 5.65439 14.2327C5.7699 14.2746 5.89618 14.2763 6.01275 14.2375L10.6021 12.7075L13.091 15.1964C13.1933 15.2986 13.332 15.3561 13.4766 15.3561C13.6212 15.3561 13.76 15.2986 13.8622 15.1964L19.3167 9.74191C19.4037 9.65503 19.4588 9.54128 19.4731 9.41913C19.4874 9.29698 19.4599 9.1736 19.3953 9.069C19.3306 8.9644 19.2325 8.88473 19.1168 8.84292C19.0012 8.8011 18.8748 8.7996 18.7581 8.83865L14.1688 10.3681L11.6805 7.87976C11.5821 7.78125 11.4498 7.72407 11.3107 7.71995ZM11.2943 9.03665L13.6364 11.3782C13.708 11.4499 13.7981 11.5002 13.8967 11.5235C13.9952 11.5468 14.0983 11.5422 14.1944 11.5102L16.9107 10.6048L13.4766 14.0395L11.135 11.6979C11.0634 11.6261 10.9732 11.5758 10.8745 11.5525C10.7759 11.5292 10.6727 11.5338 10.5765 11.5659L7.86017 12.4713L11.2943 9.03665Z" fill="#42446E"/>
</svg>
