<svg width="134" height="112" viewBox="0 0 134 112" fill="none" xmlns="http://www.w3.org/2000/svg">
<path d="M129.215 9.16406C129.586 9.80681 129.947 10.4558 130.299 11.111C129.661 10.6934 129.234 9.97913 129.215 9.16406Z" fill="white"/>
<path d="M116.113 -7.35594C117.228 -6.30955 118.31 -5.22795 119.356 -4.11291C118.951 -3.36509 118.16 -2.85714 117.25 -2.85714C115.928 -2.85714 114.857 -3.92846 114.857 -5.25C114.857 -6.15997 115.365 -6.9513 116.113 -7.35594Z" fill="white"/>
<path d="M100.889 -18.2988C101.544 -17.9473 102.193 -17.586 102.836 -17.215C102.021 -17.234 101.307 -17.6606 100.889 -18.2988Z" fill="white"/>
<path d="M31.1641 -17.215C31.8068 -17.586 32.4558 -17.9473 33.111 -18.2988C32.6934 -17.6606 31.9791 -17.234 31.1641 -17.215Z" fill="white"/>
<path d="M14.6441 -4.11291C15.6905 -5.22795 16.7721 -6.30955 17.8871 -7.35594C18.6349 -6.9513 19.1429 -6.15997 19.1429 -5.25C19.1429 -3.92846 18.0715 -2.85714 16.75 -2.85714C15.84 -2.85714 15.0487 -3.36509 14.6441 -4.11291Z" fill="white"/>
<path d="M3.70119 11.111C4.05267 10.4558 4.41402 9.80681 4.78505 9.16406C4.76602 9.97913 4.33944 10.6934 3.70119 11.111Z" fill="white"/>
<path d="M130.299 78.889C129.947 79.5442 129.586 80.1932 129.215 80.8359C129.234 80.0209 129.661 79.3066 130.299 78.889Z" fill="white"/>
<path d="M119.356 94.1129C118.951 93.3651 118.16 92.8571 117.25 92.8571C115.928 92.8571 114.857 93.9285 114.857 95.25C114.857 96.16 115.365 96.9513 116.113 97.3559C117.228 96.3095 118.31 95.2279 119.356 94.1129Z" fill="white"/>
<path d="M102.836 107.215C102.021 107.234 101.307 107.661 100.889 108.299C101.544 107.947 102.193 107.586 102.836 107.215Z" fill="white"/>
<path d="M33.111 108.299C32.6934 107.661 31.9791 107.234 31.1641 107.215C31.8068 107.586 32.4558 107.947 33.111 108.299Z" fill="white"/>
<path d="M17.8871 97.3559C18.6349 96.9513 19.1429 96.16 19.1429 95.25C19.1429 93.9285 18.0715 92.8571 16.75 92.8571C15.84 92.8571 15.0487 93.3651 14.6441 94.1129C15.6905 95.2279 16.7721 96.3095 17.8871 97.3559Z" fill="white"/>
<path d="M4.78505 80.8359C4.76602 80.0209 4.33944 79.3066 3.70119 78.889C4.05267 79.5442 4.41402 80.1932 4.78505 80.8359Z" fill="white"/>
<path d="M47.8571 -19.6071C47.8571 -18.2856 46.7858 -17.2143 45.4643 -17.2143C44.1427 -17.2143 43.0714 -18.2856 43.0714 -19.6071C43.0714 -20.9287 44.1427 -22 45.4643 -22C46.7858 -22 47.8571 -20.9287 47.8571 -19.6071Z" fill="white"/>
<path d="M62.2143 -19.6071C62.2143 -18.2856 61.143 -17.2143 59.8214 -17.2143C58.4999 -17.2143 57.4286 -18.2856 57.4286 -19.6071C57.4286 -20.9287 58.4999 -22 59.8214 -22C61.143 -22 62.2143 -20.9287 62.2143 -19.6071Z" fill="white"/>
<path d="M76.5714 -19.6071C76.5714 -18.2856 75.5001 -17.2143 74.1786 -17.2143C72.857 -17.2143 71.7857 -18.2856 71.7857 -19.6071C71.7857 -20.9287 72.857 -22 74.1786 -22C75.5001 -22 76.5714 -20.9287 76.5714 -19.6071Z" fill="white"/>
<path d="M90.9286 -19.6071C90.9286 -18.2856 89.8572 -17.2143 88.5357 -17.2143C87.2142 -17.2143 86.1429 -18.2856 86.1429 -19.6071C86.1429 -20.9287 87.2142 -22 88.5357 -22C89.8572 -22 90.9286 -20.9287 90.9286 -19.6071Z" fill="white"/>
<path d="M33.5 -5.25C33.5 -3.92846 32.4287 -2.85714 31.1071 -2.85714C29.7856 -2.85714 28.7143 -3.92846 28.7143 -5.25C28.7143 -6.57154 29.7856 -7.64286 31.1071 -7.64286C32.4287 -7.64286 33.5 -6.57154 33.5 -5.25Z" fill="white"/>
<path d="M47.8571 -5.25C47.8571 -3.92846 46.7858 -2.85714 45.4643 -2.85714C44.1427 -2.85714 43.0714 -3.92846 43.0714 -5.25C43.0714 -6.57154 44.1427 -7.64286 45.4643 -7.64286C46.7858 -7.64286 47.8571 -6.57154 47.8571 -5.25Z" fill="white"/>
<path d="M62.2143 -5.25C62.2143 -3.92846 61.143 -2.85714 59.8214 -2.85714C58.4999 -2.85714 57.4286 -3.92846 57.4286 -5.25C57.4286 -6.57154 58.4999 -7.64286 59.8214 -7.64286C61.143 -7.64286 62.2143 -6.57154 62.2143 -5.25Z" fill="white"/>
<path d="M76.5714 -5.25C76.5714 -3.92846 75.5001 -2.85714 74.1786 -2.85714C72.857 -2.85714 71.7857 -3.92846 71.7857 -5.25C71.7857 -6.57154 72.857 -7.64286 74.1786 -7.64286C75.5001 -7.64286 76.5714 -6.57154 76.5714 -5.25Z" fill="white"/>
<path d="M90.9286 -5.25C90.9286 -3.92846 89.8572 -2.85714 88.5357 -2.85714C87.2142 -2.85714 86.1429 -3.92846 86.1429 -5.25C86.1429 -6.57154 87.2142 -7.64286 88.5357 -7.64286C89.8572 -7.64286 90.9286 -6.57154 90.9286 -5.25Z" fill="white"/>
<path d="M105.286 -5.25C105.286 -3.92846 104.214 -2.85714 102.893 -2.85714C101.571 -2.85714 100.5 -3.92846 100.5 -5.25C100.5 -6.57154 101.571 -7.64286 102.893 -7.64286C104.214 -7.64286 105.286 -6.57154 105.286 -5.25Z" fill="white"/>
<path d="M19.1429 9.10714C19.1429 10.4287 18.0715 11.5 16.75 11.5C15.4285 11.5 14.3571 10.4287 14.3571 9.10714C14.3571 7.7856 15.4285 6.71428 16.75 6.71428C18.0715 6.71428 19.1429 7.7856 19.1429 9.10714Z" fill="white"/>
<path d="M33.5 9.10714C33.5 10.4287 32.4287 11.5 31.1071 11.5C29.7856 11.5 28.7143 10.4287 28.7143 9.10714C28.7143 7.7856 29.7856 6.71428 31.1071 6.71428C32.4287 6.71428 33.5 7.7856 33.5 9.10714Z" fill="white"/>
<path d="M47.8571 9.10714C47.8571 10.4287 46.7858 11.5 45.4643 11.5C44.1427 11.5 43.0714 10.4287 43.0714 9.10714C43.0714 7.7856 44.1427 6.71428 45.4643 6.71428C46.7858 6.71428 47.8571 7.7856 47.8571 9.10714Z" fill="white"/>
<path d="M62.2143 9.10714C62.2143 10.4287 61.143 11.5 59.8214 11.5C58.4999 11.5 57.4286 10.4287 57.4286 9.10714C57.4286 7.7856 58.4999 6.71428 59.8214 6.71428C61.143 6.71428 62.2143 7.7856 62.2143 9.10714Z" fill="white"/>
<path d="M76.5714 9.10714C76.5714 10.4287 75.5001 11.5 74.1786 11.5C72.857 11.5 71.7857 10.4287 71.7857 9.10714C71.7857 7.7856 72.857 6.71428 74.1786 6.71428C75.5001 6.71428 76.5714 7.7856 76.5714 9.10714Z" fill="white"/>
<path d="M90.9286 9.10714C90.9286 10.4287 89.8572 11.5 88.5357 11.5C87.2142 11.5 86.1429 10.4287 86.1429 9.10714C86.1429 7.7856 87.2142 6.71428 88.5357 6.71428C89.8572 6.71428 90.9286 7.7856 90.9286 9.10714Z" fill="white"/>
<path d="M105.286 9.10714C105.286 10.4287 104.214 11.5 102.893 11.5C101.571 11.5 100.5 10.4287 100.5 9.10714C100.5 7.7856 101.571 6.71428 102.893 6.71428C104.214 6.71428 105.286 7.7856 105.286 9.10714Z" fill="white"/>
<path d="M119.643 9.10714C119.643 10.4287 118.572 11.5 117.25 11.5C115.928 11.5 114.857 10.4287 114.857 9.10714C114.857 7.7856 115.928 6.71428 117.25 6.71428C118.572 6.71428 119.643 7.7856 119.643 9.10714Z" fill="white"/>
<path d="M4.78571 23.4643C4.78571 24.7858 3.7144 25.8571 2.39286 25.8571C1.07132 25.8571 0 24.7858 0 23.4643C0 22.1427 1.07132 21.0714 2.39286 21.0714C3.7144 21.0714 4.78571 22.1427 4.78571 23.4643Z" fill="white"/>
<path d="M19.1429 23.4643C19.1429 24.7858 18.0715 25.8571 16.75 25.8571C15.4285 25.8571 14.3571 24.7858 14.3571 23.4643C14.3571 22.1427 15.4285 21.0714 16.75 21.0714C18.0715 21.0714 19.1429 22.1427 19.1429 23.4643Z" fill="white"/>
<path d="M33.5 23.4643C33.5 24.7858 32.4287 25.8571 31.1071 25.8571C29.7856 25.8571 28.7143 24.7858 28.7143 23.4643C28.7143 22.1427 29.7856 21.0714 31.1071 21.0714C32.4287 21.0714 33.5 22.1427 33.5 23.4643Z" fill="white"/>
<path d="M47.8571 23.4643C47.8571 24.7858 46.7858 25.8571 45.4643 25.8571C44.1427 25.8571 43.0714 24.7858 43.0714 23.4643C43.0714 22.1427 44.1427 21.0714 45.4643 21.0714C46.7858 21.0714 47.8571 22.1427 47.8571 23.4643Z" fill="white"/>
<path d="M62.2143 23.4643C62.2143 24.7858 61.143 25.8571 59.8214 25.8571C58.4999 25.8571 57.4286 24.7858 57.4286 23.4643C57.4286 22.1427 58.4999 21.0714 59.8214 21.0714C61.143 21.0714 62.2143 22.1427 62.2143 23.4643Z" fill="white"/>
<path d="M76.5714 23.4643C76.5714 24.7858 75.5001 25.8571 74.1786 25.8571C72.857 25.8571 71.7857 24.7858 71.7857 23.4643C71.7857 22.1427 72.857 21.0714 74.1786 21.0714C75.5001 21.0714 76.5714 22.1427 76.5714 23.4643Z" fill="white"/>
<path d="M90.9286 23.4643C90.9286 24.7858 89.8572 25.8571 88.5357 25.8571C87.2142 25.8571 86.1429 24.7858 86.1429 23.4643C86.1429 22.1427 87.2142 21.0714 88.5357 21.0714C89.8572 21.0714 90.9286 22.1427 90.9286 23.4643Z" fill="white"/>
<path d="M105.286 23.4643C105.286 24.7858 104.214 25.8571 102.893 25.8571C101.571 25.8571 100.5 24.7858 100.5 23.4643C100.5 22.1427 101.571 21.0714 102.893 21.0714C104.214 21.0714 105.286 22.1427 105.286 23.4643Z" fill="white"/>
<path d="M119.643 23.4643C119.643 24.7858 118.572 25.8571 117.25 25.8571C115.928 25.8571 114.857 24.7858 114.857 23.4643C114.857 22.1427 115.928 21.0714 117.25 21.0714C118.572 21.0714 119.643 22.1427 119.643 23.4643Z" fill="white"/>
<path d="M134 23.4643C134 24.7858 132.929 25.8571 131.607 25.8571C130.286 25.8571 129.214 24.7858 129.214 23.4643C129.214 22.1427 130.286 21.0714 131.607 21.0714C132.929 21.0714 134 22.1427 134 23.4643Z" fill="white"/>
<path d="M4.78571 37.8214C4.78571 39.143 3.7144 40.2143 2.39286 40.2143C1.07132 40.2143 0 39.143 0 37.8214C0 36.4999 1.07132 35.4286 2.39286 35.4286C3.7144 35.4286 4.78571 36.4999 4.78571 37.8214Z" fill="white"/>
<path d="M19.1429 37.8214C19.1429 39.143 18.0715 40.2143 16.75 40.2143C15.4285 40.2143 14.3571 39.143 14.3571 37.8214C14.3571 36.4999 15.4285 35.4286 16.75 35.4286C18.0715 35.4286 19.1429 36.4999 19.1429 37.8214Z" fill="white"/>
<path d="M33.5 37.8214C33.5 39.143 32.4287 40.2143 31.1071 40.2143C29.7856 40.2143 28.7143 39.143 28.7143 37.8214C28.7143 36.4999 29.7856 35.4286 31.1071 35.4286C32.4287 35.4286 33.5 36.4999 33.5 37.8214Z" fill="white"/>
<path d="M47.8571 37.8214C47.8571 39.143 46.7858 40.2143 45.4643 40.2143C44.1427 40.2143 43.0714 39.143 43.0714 37.8214C43.0714 36.4999 44.1427 35.4286 45.4643 35.4286C46.7858 35.4286 47.8571 36.4999 47.8571 37.8214Z" fill="white"/>
<path d="M62.2143 37.8214C62.2143 39.143 61.143 40.2143 59.8214 40.2143C58.4999 40.2143 57.4286 39.143 57.4286 37.8214C57.4286 36.4999 58.4999 35.4286 59.8214 35.4286C61.143 35.4286 62.2143 36.4999 62.2143 37.8214Z" fill="white"/>
<path d="M76.5714 37.8214C76.5714 39.143 75.5001 40.2143 74.1786 40.2143C72.857 40.2143 71.7857 39.143 71.7857 37.8214C71.7857 36.4999 72.857 35.4286 74.1786 35.4286C75.5001 35.4286 76.5714 36.4999 76.5714 37.8214Z" fill="white"/>
<path d="M90.9286 37.8214C90.9286 39.143 89.8572 40.2143 88.5357 40.2143C87.2142 40.2143 86.1429 39.143 86.1429 37.8214C86.1429 36.4999 87.2142 35.4286 88.5357 35.4286C89.8572 35.4286 90.9286 36.4999 90.9286 37.8214Z" fill="white"/>
<path d="M105.286 37.8214C105.286 39.143 104.214 40.2143 102.893 40.2143C101.571 40.2143 100.5 39.143 100.5 37.8214C100.5 36.4999 101.571 35.4286 102.893 35.4286C104.214 35.4286 105.286 36.4999 105.286 37.8214Z" fill="white"/>
<path d="M119.643 37.8214C119.643 39.143 118.572 40.2143 117.25 40.2143C115.928 40.2143 114.857 39.143 114.857 37.8214C114.857 36.4999 115.928 35.4286 117.25 35.4286C118.572 35.4286 119.643 36.4999 119.643 37.8214Z" fill="white"/>
<path d="M134 37.8214C134 39.143 132.929 40.2143 131.607 40.2143C130.286 40.2143 129.214 39.143 129.214 37.8214C129.214 36.4999 130.286 35.4286 131.607 35.4286C132.929 35.4286 134 36.4999 134 37.8214Z" fill="white"/>
<path d="M4.78571 52.1786C4.78571 53.5001 3.7144 54.5714 2.39286 54.5714C1.07132 54.5714 0 53.5001 0 52.1786C0 50.857 1.07132 49.7857 2.39286 49.7857C3.7144 49.7857 4.78571 50.857 4.78571 52.1786Z" fill="white"/>
<path d="M19.1429 52.1786C19.1429 53.5001 18.0715 54.5714 16.75 54.5714C15.4285 54.5714 14.3571 53.5001 14.3571 52.1786C14.3571 50.857 15.4285 49.7857 16.75 49.7857C18.0715 49.7857 19.1429 50.857 19.1429 52.1786Z" fill="white"/>
<path d="M33.5 52.1786C33.5 53.5001 32.4287 54.5714 31.1071 54.5714C29.7856 54.5714 28.7143 53.5001 28.7143 52.1786C28.7143 50.857 29.7856 49.7857 31.1071 49.7857C32.4287 49.7857 33.5 50.857 33.5 52.1786Z" fill="white"/>
<path d="M47.8571 52.1786C47.8571 53.5001 46.7858 54.5714 45.4643 54.5714C44.1427 54.5714 43.0714 53.5001 43.0714 52.1786C43.0714 50.857 44.1427 49.7857 45.4643 49.7857C46.7858 49.7857 47.8571 50.857 47.8571 52.1786Z" fill="white"/>
<path d="M62.2143 52.1786C62.2143 53.5001 61.143 54.5714 59.8214 54.5714C58.4999 54.5714 57.4286 53.5001 57.4286 52.1786C57.4286 50.857 58.4999 49.7857 59.8214 49.7857C61.143 49.7857 62.2143 50.857 62.2143 52.1786Z" fill="white"/>
<path d="M76.5714 52.1786C76.5714 53.5001 75.5001 54.5714 74.1786 54.5714C72.857 54.5714 71.7857 53.5001 71.7857 52.1786C71.7857 50.857 72.857 49.7857 74.1786 49.7857C75.5001 49.7857 76.5714 50.857 76.5714 52.1786Z" fill="white"/>
<path d="M90.9286 52.1786C90.9286 53.5001 89.8572 54.5714 88.5357 54.5714C87.2142 54.5714 86.1429 53.5001 86.1429 52.1786C86.1429 50.857 87.2142 49.7857 88.5357 49.7857C89.8572 49.7857 90.9286 50.857 90.9286 52.1786Z" fill="white"/>
<path d="M105.286 52.1786C105.286 53.5001 104.214 54.5714 102.893 54.5714C101.571 54.5714 100.5 53.5001 100.5 52.1786C100.5 50.857 101.571 49.7857 102.893 49.7857C104.214 49.7857 105.286 50.857 105.286 52.1786Z" fill="white"/>
<path d="M119.643 52.1786C119.643 53.5001 118.572 54.5714 117.25 54.5714C115.928 54.5714 114.857 53.5001 114.857 52.1786C114.857 50.857 115.928 49.7857 117.25 49.7857C118.572 49.7857 119.643 50.857 119.643 52.1786Z" fill="white"/>
<path d="M134 52.1786C134 53.5001 132.929 54.5714 131.607 54.5714C130.286 54.5714 129.214 53.5001 129.214 52.1786C129.214 50.857 130.286 49.7857 131.607 49.7857C132.929 49.7857 134 50.857 134 52.1786Z" fill="white"/>
<path d="M4.78571 66.5357C4.78571 67.8572 3.7144 68.9286 2.39286 68.9286C1.07132 68.9286 0 67.8572 0 66.5357C0 65.2142 1.07132 64.1429 2.39286 64.1429C3.7144 64.1429 4.78571 65.2142 4.78571 66.5357Z" fill="white"/>
<path d="M19.1429 66.5357C19.1429 67.8572 18.0715 68.9286 16.75 68.9286C15.4285 68.9286 14.3571 67.8572 14.3571 66.5357C14.3571 65.2142 15.4285 64.1429 16.75 64.1429C18.0715 64.1429 19.1429 65.2142 19.1429 66.5357Z" fill="white"/>
<path d="M33.5 66.5357C33.5 67.8572 32.4287 68.9286 31.1071 68.9286C29.7856 68.9286 28.7143 67.8572 28.7143 66.5357C28.7143 65.2142 29.7856 64.1429 31.1071 64.1429C32.4287 64.1429 33.5 65.2142 33.5 66.5357Z" fill="white"/>
<path d="M47.8571 66.5357C47.8571 67.8572 46.7858 68.9286 45.4643 68.9286C44.1427 68.9286 43.0714 67.8572 43.0714 66.5357C43.0714 65.2142 44.1427 64.1429 45.4643 64.1429C46.7858 64.1429 47.8571 65.2142 47.8571 66.5357Z" fill="white"/>
<path d="M62.2143 66.5357C62.2143 67.8572 61.143 68.9286 59.8214 68.9286C58.4999 68.9286 57.4286 67.8572 57.4286 66.5357C57.4286 65.2142 58.4999 64.1429 59.8214 64.1429C61.143 64.1429 62.2143 65.2142 62.2143 66.5357Z" fill="white"/>
<path d="M76.5714 66.5357C76.5714 67.8572 75.5001 68.9286 74.1786 68.9286C72.857 68.9286 71.7857 67.8572 71.7857 66.5357C71.7857 65.2142 72.857 64.1429 74.1786 64.1429C75.5001 64.1429 76.5714 65.2142 76.5714 66.5357Z" fill="white"/>
<path d="M90.9286 66.5357C90.9286 67.8572 89.8572 68.9286 88.5357 68.9286C87.2142 68.9286 86.1429 67.8572 86.1429 66.5357C86.1429 65.2142 87.2142 64.1429 88.5357 64.1429C89.8572 64.1429 90.9286 65.2142 90.9286 66.5357Z" fill="white"/>
<path d="M105.286 66.5357C105.286 67.8572 104.214 68.9286 102.893 68.9286C101.571 68.9286 100.5 67.8572 100.5 66.5357C100.5 65.2142 101.571 64.1429 102.893 64.1429C104.214 64.1429 105.286 65.2142 105.286 66.5357Z" fill="white"/>
<path d="M119.643 66.5357C119.643 67.8572 118.572 68.9286 117.25 68.9286C115.928 68.9286 114.857 67.8572 114.857 66.5357C114.857 65.2142 115.928 64.1429 117.25 64.1429C118.572 64.1429 119.643 65.2142 119.643 66.5357Z" fill="white"/>
<path d="M134 66.5357C134 67.8572 132.929 68.9286 131.607 68.9286C130.286 68.9286 129.214 67.8572 129.214 66.5357C129.214 65.2142 130.286 64.1429 131.607 64.1429C132.929 64.1429 134 65.2142 134 66.5357Z" fill="white"/>
<path d="M19.1429 80.8929C19.1429 82.2144 18.0715 83.2857 16.75 83.2857C15.4285 83.2857 14.3571 82.2144 14.3571 80.8929C14.3571 79.5713 15.4285 78.5 16.75 78.5C18.0715 78.5 19.1429 79.5713 19.1429 80.8929Z" fill="white"/>
<path d="M33.5 80.8929C33.5 82.2144 32.4287 83.2857 31.1071 83.2857C29.7856 83.2857 28.7143 82.2144 28.7143 80.8929C28.7143 79.5713 29.7856 78.5 31.1071 78.5C32.4287 78.5 33.5 79.5713 33.5 80.8929Z" fill="white"/>
<path d="M47.8571 80.8929C47.8571 82.2144 46.7858 83.2857 45.4643 83.2857C44.1427 83.2857 43.0714 82.2144 43.0714 80.8929C43.0714 79.5713 44.1427 78.5 45.4643 78.5C46.7858 78.5 47.8571 79.5713 47.8571 80.8929Z" fill="white"/>
<path d="M62.2143 80.8929C62.2143 82.2144 61.143 83.2857 59.8214 83.2857C58.4999 83.2857 57.4286 82.2144 57.4286 80.8929C57.4286 79.5713 58.4999 78.5 59.8214 78.5C61.143 78.5 62.2143 79.5713 62.2143 80.8929Z" fill="white"/>
<path d="M76.5714 80.8929C76.5714 82.2144 75.5001 83.2857 74.1786 83.2857C72.857 83.2857 71.7857 82.2144 71.7857 80.8929C71.7857 79.5713 72.857 78.5 74.1786 78.5C75.5001 78.5 76.5714 79.5713 76.5714 80.8929Z" fill="white"/>
<path d="M90.9286 80.8929C90.9286 82.2144 89.8572 83.2857 88.5357 83.2857C87.2142 83.2857 86.1429 82.2144 86.1429 80.8929C86.1429 79.5713 87.2142 78.5 88.5357 78.5C89.8572 78.5 90.9286 79.5713 90.9286 80.8929Z" fill="white"/>
<path d="M105.286 80.8929C105.286 82.2144 104.214 83.2857 102.893 83.2857C101.571 83.2857 100.5 82.2144 100.5 80.8929C100.5 79.5713 101.571 78.5 102.893 78.5C104.214 78.5 105.286 79.5713 105.286 80.8929Z" fill="white"/>
<path d="M119.643 80.8929C119.643 82.2144 118.572 83.2857 117.25 83.2857C115.928 83.2857 114.857 82.2144 114.857 80.8929C114.857 79.5713 115.928 78.5 117.25 78.5C118.572 78.5 119.643 79.5713 119.643 80.8929Z" fill="white"/>
<path d="M33.5 95.25C33.5 96.5715 32.4287 97.6429 31.1071 97.6429C29.7856 97.6429 28.7143 96.5715 28.7143 95.25C28.7143 93.9285 29.7856 92.8571 31.1071 92.8571C32.4287 92.8571 33.5 93.9285 33.5 95.25Z" fill="white"/>
<path d="M47.8571 95.25C47.8571 96.5715 46.7858 97.6429 45.4643 97.6429C44.1427 97.6429 43.0714 96.5715 43.0714 95.25C43.0714 93.9285 44.1427 92.8571 45.4643 92.8571C46.7858 92.8571 47.8571 93.9285 47.8571 95.25Z" fill="white"/>
<path d="M62.2143 95.25C62.2143 96.5715 61.143 97.6429 59.8214 97.6429C58.4999 97.6429 57.4286 96.5715 57.4286 95.25C57.4286 93.9285 58.4999 92.8571 59.8214 92.8571C61.143 92.8571 62.2143 93.9285 62.2143 95.25Z" fill="white"/>
<path d="M76.5714 95.25C76.5714 96.5715 75.5001 97.6429 74.1786 97.6429C72.857 97.6429 71.7857 96.5715 71.7857 95.25C71.7857 93.9285 72.857 92.8571 74.1786 92.8571C75.5001 92.8571 76.5714 93.9285 76.5714 95.25Z" fill="white"/>
<path d="M90.9286 95.25C90.9286 96.5715 89.8572 97.6429 88.5357 97.6429C87.2142 97.6429 86.1429 96.5715 86.1429 95.25C86.1429 93.9285 87.2142 92.8571 88.5357 92.8571C89.8572 92.8571 90.9286 93.9285 90.9286 95.25Z" fill="white"/>
<path d="M105.286 95.25C105.286 96.5715 104.214 97.6429 102.893 97.6429C101.571 97.6429 100.5 96.5715 100.5 95.25C100.5 93.9285 101.571 92.8571 102.893 92.8571C104.214 92.8571 105.286 93.9285 105.286 95.25Z" fill="white"/>
<path d="M47.8571 109.607C47.8571 110.929 46.7858 112 45.4643 112C44.1427 112 43.0714 110.929 43.0714 109.607C43.0714 108.286 44.1427 107.214 45.4643 107.214C46.7858 107.214 47.8571 108.286 47.8571 109.607Z" fill="white"/>
<path d="M62.2143 109.607C62.2143 110.929 61.143 112 59.8214 112C58.4999 112 57.4286 110.929 57.4286 109.607C57.4286 108.286 58.4999 107.214 59.8214 107.214C61.143 107.214 62.2143 108.286 62.2143 109.607Z" fill="white"/>
<path d="M76.5714 109.607C76.5714 110.929 75.5001 112 74.1786 112C72.857 112 71.7857 110.929 71.7857 109.607C71.7857 108.286 72.857 107.214 74.1786 107.214C75.5001 107.214 76.5714 108.286 76.5714 109.607Z" fill="white"/>
<path d="M90.9286 109.607C90.9286 110.929 89.8572 112 88.5357 112C87.2142 112 86.1429 110.929 86.1429 109.607C86.1429 108.286 87.2142 107.214 88.5357 107.214C89.8572 107.214 90.9286 108.286 90.9286 109.607Z" fill="white"/>
</svg>
