<svg width="101" height="101" viewBox="0 0 101 101" fill="none" xmlns="http://www.w3.org/2000/svg">
<path d="M0.200059 94.8562C-0.0327575 95.357 0.184497 95.9517 0.685311 96.1846L8.84655 99.9785C9.34737 100.211 9.94209 99.9941 10.1749 99.4933C10.4077 98.9925 10.1905 98.3977 9.68965 98.1649L2.43522 94.7925L5.80763 87.5381C6.04045 87.0373 5.82319 86.4425 5.32238 86.2097C4.82156 85.9769 4.22684 86.1942 3.99402 86.695L0.200059 94.8562ZM56.3069 21.9231L56.0536 22.8904L56.3069 21.9231ZM30.5469 79.5764L31.2024 80.3316L30.5469 79.5764ZM79.6136 30.5097L80.3047 31.2325L79.6136 30.5097ZM28.8296 52.8351L29.7581 52.4637L28.8296 52.8351ZM1.10686 95.2778C1.44999 96.2171 1.45001 96.217 1.45004 96.217C1.45005 96.217 1.45008 96.217 1.4501 96.217C1.45015 96.217 1.45021 96.217 1.45028 96.2169C1.45042 96.2169 1.4506 96.2168 1.45083 96.2167C1.45128 96.2166 1.45191 96.2163 1.45272 96.2161C1.45433 96.2155 1.45663 96.2146 1.45963 96.2135C1.46562 96.2113 1.47437 96.2081 1.48584 96.2039C1.50877 96.1954 1.54255 96.183 1.58678 96.1665C1.67522 96.1337 1.80546 96.085 1.97425 96.0211C2.31182 95.8934 2.80369 95.705 3.42404 95.4608L2.69166 93.5998C2.08013 93.8404 1.59651 94.0257 1.26656 94.1505C1.10158 94.2129 0.975049 94.2602 0.890168 94.2918C0.847727 94.3075 0.815704 94.3194 0.794497 94.3272C0.783893 94.3311 0.775996 94.334 0.770851 94.3359C0.76828 94.3368 0.766397 94.3375 0.765209 94.3379C0.764615 94.3382 0.764196 94.3383 0.76395 94.3384C0.763827 94.3384 0.763747 94.3385 0.763712 94.3385C0.763695 94.3385 0.763687 94.3385 0.763691 94.3385C0.763694 94.3385 0.763706 94.3385 0.763707 94.3385C0.76372 94.3385 0.763737 94.3385 1.10686 95.2778ZM7.32728 93.8634C8.50031 93.3657 9.80124 92.798 11.1841 92.1695L10.3565 90.3488C8.99075 90.9695 7.7054 91.5304 6.54611 92.0222L7.32728 93.8634ZM15.001 90.3713C16.2349 89.7683 17.4979 89.1286 18.7637 88.4575L17.8268 86.6905C16.5826 87.3502 15.3393 87.9799 14.1228 88.5744L15.001 90.3713ZM22.4613 86.4027C23.693 85.6834 24.9042 84.9371 26.0692 84.1689L24.9682 82.4992C23.8376 83.2447 22.6577 83.9719 21.4527 84.6756L22.4613 86.4027ZM29.5442 81.6914C30.1196 81.2439 30.6739 80.7904 31.2024 80.3316L29.8914 78.8213C29.3927 79.2542 28.8664 79.6849 28.3165 80.1125L29.5442 81.6914ZM31.2024 80.3316C31.7118 79.8895 32.2301 79.4333 32.7559 78.964L31.4242 77.4719C30.905 77.9352 30.3936 78.3853 29.8914 78.8213L31.2024 80.3316ZM35.8136 76.1656C36.7998 75.241 37.8024 74.28 38.8137 73.2882L37.4134 71.8603C36.4127 72.8417 35.4209 73.7923 34.4457 74.7065L35.8136 76.1656ZM41.7401 70.3551C42.6969 69.375 43.6551 68.3723 44.6082 67.3516L43.1465 65.9866C42.2037 66.9962 41.2558 67.9882 40.309 68.958L41.7401 70.3551ZM47.4041 64.2874C48.3246 63.2544 49.2342 62.2082 50.1271 61.1532L48.6005 59.8612C47.7191 60.9026 46.8206 61.9359 45.9109 62.9569L47.4041 64.2874ZM52.7681 57.9426C53.6411 56.8489 54.4904 55.7503 55.3095 54.6513L53.7058 53.4562C52.901 54.5362 52.0653 55.6172 51.205 56.6948L52.7681 57.9426ZM57.7359 51.2609C58.5384 50.0891 59.2991 48.9216 60.0097 47.7642L58.3053 46.7178C57.6137 47.8441 56.8714 48.9837 56.0858 50.1308L57.7359 51.2609ZM62.0939 44.1185C62.7745 42.8265 63.3797 41.5527 63.8962 40.3062L62.0486 39.5406C61.5588 40.7227 60.9806 41.9406 60.3244 43.1864L62.0939 44.1185ZM65.2696 36.2707C65.6538 34.7834 65.8762 33.3414 65.9014 31.9666L63.9018 31.93C63.88 33.1177 63.6867 34.4018 63.3332 35.7705L65.2696 36.2707ZM65.1582 27.5435C64.6 26.1419 63.7198 24.8968 62.4913 23.8448L61.1905 25.364C62.1761 26.208 62.8634 27.1868 63.3001 28.2834L65.1582 27.5435ZM58.6363 21.619C57.9891 21.37 57.2974 21.1487 56.5603 20.9557L56.0536 22.8904C56.7252 23.0663 57.3459 23.2654 57.9181 23.4856L58.6363 21.619ZM56.5603 20.9557C55.8353 20.7658 55.1186 20.6079 54.4107 20.4808L54.0572 22.4493C54.7126 22.567 55.3782 22.7136 56.0536 22.8904L56.5603 20.9557ZM50.0145 20.076C48.4902 20.0727 47.0198 20.2164 45.6092 20.4914L45.992 22.4544C47.2742 22.2044 48.6149 22.073 50.0101 22.076L50.0145 20.076ZM41.3621 21.7776C39.9801 22.3553 38.6788 23.0658 37.465 23.8876L38.5862 25.5437C39.6936 24.7941 40.878 24.1477 42.1334 23.623L41.3621 21.7776ZM34.0545 26.7023C33.0087 27.7426 32.0598 28.8749 31.2143 30.0767L32.8501 31.2275C33.6306 30.1179 34.5046 29.0755 35.4649 28.1203L34.0545 26.7023ZM28.9907 33.8765C28.3545 35.2043 27.8287 36.5817 27.4203 37.9869L29.3408 38.5451C29.7187 37.2451 30.2054 35.9699 30.7944 34.7407L28.9907 33.8765ZM26.5496 42.3051C26.3816 43.7775 26.3438 45.2577 26.445 46.7219L28.4403 46.5841C28.3478 45.2462 28.3819 43.8881 28.5367 42.5318L26.5496 42.3051ZM27.1884 51.0948C27.3874 51.8102 27.6246 52.5151 27.9011 53.2065L29.7581 52.4637C29.5092 51.8416 29.2952 51.2057 29.1153 50.5589L27.1884 51.0948ZM27.9011 53.2065C28.1781 53.899 28.4916 54.5352 28.8412 55.1157L30.5544 54.0838C30.2654 53.6039 29.9988 53.0655 29.7581 52.4637L27.9011 53.2065ZM31.8348 58.2477C33.0775 59.0308 34.4745 59.4558 35.971 59.5882L36.1472 57.5959C34.9208 57.4875 33.8385 57.1463 32.901 56.5556L31.8348 58.2477ZM40.1385 59.3032C41.4007 59.0496 42.7104 58.6573 44.0527 58.1511L43.347 56.2798C42.085 56.7557 40.8806 57.1142 39.7446 57.3424L40.1385 59.3032ZM47.726 56.5352C48.8739 55.9646 50.0416 55.3279 51.2217 54.6364L50.2106 52.9108C49.0645 53.5824 47.9373 54.1967 46.8357 54.7443L47.726 56.5352ZM54.5843 52.5456C55.667 51.8359 56.756 51.089 57.846 50.3127L56.6857 48.6836C55.6145 49.4466 54.5469 50.1788 53.4879 50.8729L54.5843 52.5456ZM61.0246 47.9714C62.0636 47.1818 63.0996 46.372 64.128 45.5485L62.878 43.9873C61.8616 44.8011 60.839 45.6005 59.8145 46.3789L61.0246 47.9714ZM67.1733 43.0547C68.1837 42.2096 69.1824 41.3572 70.1647 40.5044L68.8536 38.9941C67.8798 39.8396 66.8904 40.6839 65.8901 41.5206L67.1733 43.0547ZM73.1135 37.9021C74.1066 37.0117 75.0769 36.1282 76.019 35.2594L74.6631 33.7891C73.7273 34.6521 72.764 35.5293 71.7784 36.4129L73.1135 37.9021ZM78.8846 32.5829C79.3685 32.1254 79.8421 31.6748 80.3047 31.2325L78.9225 29.787C78.4625 30.2269 77.9915 30.6748 77.5106 31.1296L78.8846 32.5829ZM80.3047 31.2325C80.8548 30.7065 81.3917 30.1775 81.9157 29.6465L80.492 28.2418C79.9814 28.7593 79.4583 29.2746 78.9225 29.787L80.3047 31.2325ZM84.994 26.3439C86.0151 25.1848 86.9775 24.0258 87.8832 22.877L86.3126 21.6387C85.4284 22.7603 84.4893 23.8913 83.4933 25.0219L84.994 26.3439ZM90.5797 19.2631C91.4852 17.9804 92.319 16.725 93.0841 15.5121L91.3926 14.445C90.6449 15.6301 89.8303 16.8567 88.9458 18.1097L90.5797 19.2631ZM95.3923 11.6343C96.2025 10.189 96.9004 8.84608 97.493 7.64021L95.6981 6.75805C95.1203 7.93374 94.4391 9.24456 93.6477 10.6564L95.3923 11.6343ZM99.3601 3.53126C99.6392 2.85815 99.8444 2.32752 99.9807 1.96286C100.049 1.78052 100.1 1.63965 100.134 1.54318C100.151 1.49495 100.164 1.45781 100.173 1.43214C100.178 1.41931 100.181 1.40934 100.183 1.40228C100.185 1.39874 100.186 1.39594 100.186 1.39388C100.187 1.39285 100.187 1.392 100.187 1.39133C100.187 1.391 100.187 1.39071 100.187 1.39047C100.187 1.39035 100.188 1.39024 100.188 1.39014C100.188 1.39009 100.188 1.39003 100.188 1.39C100.188 1.38994 100.188 1.38988 99.2403 1.06969C98.2929 0.749507 98.2929 0.749447 98.293 0.749398C98.293 0.749383 98.293 0.749335 98.293 0.749316C98.293 0.749266 98.293 0.74922 98.293 0.749189C98.293 0.749139 98.293 0.749124 98.293 0.749157C98.293 0.749235 98.2929 0.74948 98.2928 0.749915C98.2925 0.750795 98.2919 0.752392 98.2911 0.754721C98.2895 0.759369 98.287 0.766918 98.2833 0.777319C98.2761 0.798121 98.2649 0.83033 98.2495 0.873576C98.2188 0.960078 98.1716 1.09073 98.1073 1.26263C97.9788 1.60641 97.7822 2.11507 97.5126 2.76522L99.3601 3.53126Z" fill="white"/>
</svg>
