<svg width="212" height="185" viewBox="0 0 212 185" fill="none" xmlns="http://www.w3.org/2000/svg">
<path fill-rule="evenodd" clip-rule="evenodd" d="M0 0H212V185H0V0ZM0.33125 0.330357H26.1688V26.0982H0.33125V0.330357ZM26.8313 0.330357H52.6688V26.0982H26.8313V0.330357ZM79.1688 0.330357H53.3313V26.0982H79.1688V0.330357ZM79.8313 0.330357H105.669V26.0982H79.8313V0.330357ZM132.169 0.330357H106.331V26.0982H132.169V0.330357ZM132.831 0.330357H158.669V26.0982H132.831V0.330357ZM185.169 0.330357H159.331V26.0982H185.169V0.330357ZM185.831 0.330357H211.669V26.0982H185.831V0.330357ZM26.1688 26.7589H0.33125V52.5268H26.1688V26.7589ZM26.8313 26.7589H52.6688V52.5268H26.8313V26.7589ZM79.1688 26.7589H53.3313V52.5268H79.1688V26.7589ZM79.8313 26.7589H105.669V52.5268H79.8313V26.7589ZM132.169 26.7589H106.331V52.5268H132.169V26.7589ZM132.831 26.7589H158.669V52.5268H132.831V26.7589ZM185.169 26.7589H159.331V52.5268H185.169V26.7589ZM185.831 26.7589H211.669V52.5268H185.831V26.7589ZM26.1688 53.1875H0.33125V78.9554H26.1688V53.1875ZM26.8313 53.1875H52.6688V78.9554H26.8313V53.1875ZM79.1688 53.1875H53.3313V78.9554H79.1688V53.1875ZM79.8313 53.1875H105.669V78.9554H79.8313V53.1875ZM132.169 53.1875H106.331V78.9554H132.169V53.1875ZM132.831 53.1875H158.669V78.9554H132.831V53.1875ZM185.169 53.1875H159.331V78.9554H185.169V53.1875ZM185.831 53.1875H211.669V78.9554H185.831V53.1875ZM26.1688 79.6161H0.33125V105.384H26.1688V79.6161ZM26.8313 79.6161H52.6688V105.384H26.8313V79.6161ZM79.1688 79.6161H53.3313V105.384H79.1688V79.6161ZM79.8313 79.6161H105.669V105.384H79.8313V79.6161ZM132.169 79.6161H106.331V105.384H132.169V79.6161ZM132.831 79.6161H158.669V105.384H132.831V79.6161ZM185.169 79.6161H159.331V105.384H185.169V79.6161ZM185.831 79.6161H211.669V105.384H185.831V79.6161ZM26.1688 106.045H0.33125V131.812H26.1688V106.045ZM26.8313 106.045H52.6688V131.812H26.8313V106.045ZM79.1688 106.045H53.3313V131.812H79.1688V106.045ZM79.8313 106.045H105.669V131.812H79.8313V106.045ZM132.169 106.045H106.331V131.812H132.169V106.045ZM132.831 106.045H158.669V131.812H132.831V106.045ZM185.169 106.045H159.331V131.812H185.169V106.045ZM185.831 106.045H211.669V131.812H185.831V106.045ZM26.1688 132.473H0.33125V158.241H26.1688V132.473ZM26.8313 132.473H52.6688V158.241H26.8313V132.473ZM79.1688 132.473H53.3313V158.241H79.1688V132.473ZM79.8313 132.473H105.669V158.241H79.8313V132.473ZM132.169 132.473H106.331V158.241H132.169V132.473ZM132.831 132.473H158.669V158.241H132.831V132.473ZM185.169 132.473H159.331V158.241H185.169V132.473ZM185.831 132.473H211.669V158.241H185.831V132.473ZM26.1688 158.902H0.33125V184.67H26.1688V158.902ZM26.8313 158.902H52.6688V184.67H26.8313V158.902ZM79.1688 158.902H53.3313V184.67H79.1688V158.902ZM79.8313 158.902H105.669V184.67H79.8313V158.902ZM132.169 158.902H106.331V184.67H132.169V158.902ZM132.831 158.902H158.669V184.67H132.831V158.902ZM185.169 158.902H159.331V184.67H185.169V158.902ZM185.831 158.902H211.669V184.67H185.831V158.902Z" fill="white"/>
</svg>
