<svg width="27" height="27" viewBox="0 0 27 27" fill="none" xmlns="http://www.w3.org/2000/svg">
<g clip-path="url(#clip0_572_877)">
<path fill-rule="evenodd" clip-rule="evenodd" d="M13.5011 0.5625C10.2962 0.564163 7.19642 1.69927 4.75601 3.76484C2.31559 5.83041 0.693669 8.69176 0.180266 11.8372C-0.333138 14.9827 0.295446 18.2072 1.95363 20.9342C3.61182 23.6612 6.19147 25.7127 9.23132 26.7221C9.90196 26.8466 10.1546 26.4309 10.1546 26.0775C10.1546 25.7241 10.1412 24.6994 10.1367 23.5791C6.3811 24.3904 5.58751 21.9943 5.58751 21.9943C4.97499 20.4384 4.08974 20.0294 4.08974 20.0294C2.86471 19.1981 4.18141 19.2136 4.18141 19.2136C5.53834 19.3092 6.25145 20.5984 6.25145 20.5984C7.45414 22.65 9.41016 22.0565 10.1792 21.7098C10.2999 20.8407 10.6509 20.2494 11.0376 19.9138C8.03759 19.5759 4.88557 18.4246 4.88557 13.2811C4.86698 11.9472 5.3648 10.6572 6.27604 9.67802C6.13744 9.34016 5.67469 7.97539 6.40793 6.12161C6.40793 6.12161 7.54132 5.76152 10.121 7.4975C12.3338 6.89583 14.6684 6.89583 16.8811 7.4975C19.4586 5.76152 20.5897 6.12161 20.5897 6.12161C21.3252 7.97094 20.8625 9.33571 20.7239 9.67802C21.638 10.6573 22.1369 11.9496 22.1166 13.2855C22.1166 18.4401 18.9579 19.5759 15.9534 19.9071C16.4362 20.325 16.8677 21.1408 16.8677 22.3944C16.8677 24.1904 16.852 25.6352 16.852 26.0775C16.852 26.4354 17.0957 26.8532 17.7798 26.7221C20.82 25.7126 23.3999 23.6607 25.058 20.9332C26.7162 18.2058 27.3444 14.9808 26.8305 11.8351C26.3165 8.68928 24.6937 5.8279 22.2525 3.76268C19.8113 1.69746 16.7108 0.563109 13.5055 0.5625H13.5011Z" fill="#FFCA42"/>
<path d="M9.03211 22.472C9.03211 22.5809 8.90693 22.6743 8.74597 22.6765C8.58502 22.6787 8.45312 22.5898 8.45312 22.4809C8.45312 22.372 8.5783 22.2786 8.73926 22.2764C8.90021 22.2742 9.03211 22.3609 9.03211 22.472Z" fill="#FFCA42"/>
<path d="M10.0592 22.3009C10.0793 22.4098 9.96755 22.5232 9.8066 22.5499C9.64564 22.5765 9.50481 22.5121 9.48469 22.4054C9.46457 22.2987 9.58081 22.1831 9.7373 22.1542C9.89378 22.1253 10.0391 22.192 10.0592 22.3009Z" fill="#FFCA42"/>
<path d="M7.92743 22.3967C7.8939 22.5012 7.74189 22.5478 7.58988 22.5034C7.43786 22.4589 7.33727 22.3345 7.36633 22.2278C7.39539 22.1211 7.54964 22.0722 7.70389 22.1211C7.85813 22.17 7.9565 22.2878 7.92743 22.3967Z" fill="#FFCA42"/>
<path d="M6.91407 21.9609C6.8403 22.0431 6.69053 22.0209 6.56758 21.9098C6.44463 21.7986 6.41556 21.6475 6.48933 21.5675C6.5631 21.4875 6.71288 21.5097 6.8403 21.6186C6.96772 21.7275 6.99232 21.8809 6.91407 21.9609V21.9609Z" fill="#FFCA42"/>
<path d="M6.19247 21.2142C6.10976 21.272 5.96892 21.2143 5.89068 21.0987C5.86904 21.0779 5.85184 21.0531 5.84008 21.0256C5.82833 20.9981 5.82227 20.9685 5.82227 20.9386C5.82227 20.9088 5.82833 20.8792 5.84008 20.8517C5.85184 20.8242 5.86904 20.7993 5.89068 20.7786C5.97339 20.723 6.11423 20.7786 6.19247 20.892C6.27072 21.0053 6.27295 21.1565 6.19247 21.2142V21.2142Z" fill="#FFCA42"/>
<path d="M5.66062 20.443C5.61433 20.4662 5.56136 20.4727 5.51079 20.4613C5.46023 20.45 5.41521 20.4215 5.38342 20.3808C5.29624 20.2874 5.27835 20.1585 5.34541 20.1007C5.41248 20.0429 5.5332 20.0696 5.62038 20.163C5.70757 20.2563 5.72768 20.3852 5.66062 20.443Z" fill="#FFCA42"/>
<path d="M5.11202 19.8362C5.08296 19.9029 4.97565 19.9229 4.88847 19.8762C4.80129 19.8295 4.73646 19.7428 4.76776 19.6739C4.79906 19.605 4.90412 19.5873 4.99131 19.6339C5.07849 19.6806 5.14555 19.7695 5.11202 19.8362Z" fill="#FFCA42"/>
</g>
<defs>
<clipPath id="clip0_572_877">
<rect width="27" height="27" fill="white"/>
</clipPath>
</defs>
</svg>
