<svg width="37" height="36" viewBox="0 0 37 36" fill="none" xmlns="http://www.w3.org/2000/svg">
<g clip-path="url(#clip0_572_772)">
<path d="M20.4461 22.2445H16.5461C16.3211 22.2445 16.1711 22.0987 16.1711 21.88C16.1711 21.6612 16.3211 21.5154 16.5461 21.5154H20.4461C20.6711 21.5154 20.8211 21.6612 20.8211 21.88C20.8211 22.0987 20.6711 22.2445 20.4461 22.2445ZM18.9461 23.7029H16.5461C16.3211 23.7029 16.1711 23.557 16.1711 23.3383C16.1711 23.1195 16.3211 22.9737 16.5461 22.9737H18.9461C19.1711 22.9737 19.3211 23.1195 19.3211 23.3383C19.3211 23.557 19.1711 23.7029 18.9461 23.7029ZM12.1211 23.7029C11.5211 23.7029 10.9961 23.1925 10.9961 22.6091V18.2341C10.9961 17.6508 11.5211 17.1404 12.1211 17.1404C12.7211 17.1404 13.2461 17.6508 13.2461 18.2341V22.6091C13.2461 23.1925 12.7211 23.7029 12.1211 23.7029ZM12.1211 17.8695C11.8961 17.8695 11.7461 18.0154 11.7461 18.2341V22.6091C11.7461 22.8279 11.8961 22.9737 12.1211 22.9737C12.3461 22.9737 12.4961 22.8279 12.4961 22.6091V18.2341C12.4961 18.0154 12.3461 17.8695 12.1211 17.8695Z" fill="black"/>
<path d="M11.3711 22.9737H9.87109C9.27109 22.9737 8.74609 22.4633 8.74609 21.88V18.9633C8.74609 18.38 9.27109 17.8695 9.87109 17.8695H11.3711C11.5961 17.8695 11.7461 18.0154 11.7461 18.2341V22.6091C11.7461 22.8279 11.5961 22.9737 11.3711 22.9737ZM9.87109 18.5987C9.64609 18.5987 9.49609 18.7445 9.49609 18.9633V21.88C9.49609 22.0987 9.64609 22.2445 9.87109 22.2445H10.9961V18.5987H9.87109ZM24.8711 23.7029C24.2711 23.7029 23.7461 23.1925 23.7461 22.6091V18.2341C23.7461 17.6508 24.2711 17.1404 24.8711 17.1404C25.4711 17.1404 25.9961 17.6508 25.9961 18.2341V22.6091C25.9961 23.1925 25.4711 23.7029 24.8711 23.7029ZM24.8711 17.8695C24.6461 17.8695 24.4961 18.0154 24.4961 18.2341V22.6091C24.4961 22.8279 24.6461 22.9737 24.8711 22.9737C25.0961 22.9737 25.2461 22.8279 25.2461 22.6091V18.2341C25.2461 18.0154 25.0961 17.8695 24.8711 17.8695Z" fill="black"/>
<path d="M27.1211 22.9738H25.6211C25.3961 22.9738 25.2461 22.828 25.2461 22.6092V18.2342C25.2461 18.0155 25.3961 17.8696 25.6211 17.8696H27.1211C27.7211 17.8696 28.2461 18.38 28.2461 18.9634V21.88C28.2461 22.4634 27.7211 22.9738 27.1211 22.9738ZM25.9961 22.2446H27.1211C27.3461 22.2446 27.4961 22.0988 27.4961 21.88V18.9634C27.4961 18.7446 27.3461 18.5988 27.1211 18.5988H25.9961V22.2446ZM20.3711 28.8071H19.6211C19.0211 28.8071 18.4961 28.2967 18.4961 27.7134C18.4961 27.13 19.0211 26.6196 19.6211 26.6196H20.3711C20.9711 26.6196 21.4961 27.13 21.4961 27.7134C21.4961 28.2967 20.9711 28.8071 20.3711 28.8071ZM19.6211 27.3488C19.3961 27.3488 19.2461 27.4946 19.2461 27.7134C19.2461 27.9321 19.3961 28.078 19.6211 28.078H20.3711C20.5961 28.078 20.7461 27.9321 20.7461 27.7134C20.7461 27.4946 20.5961 27.3488 20.3711 27.3488H19.6211Z" fill="black"/>
<path d="M22.6219 28.078H21.1219C20.8969 28.078 20.7469 27.9321 20.7469 27.7134C20.7469 27.4946 20.8969 27.3488 21.1219 27.3488H22.6219C24.8719 27.3488 26.7469 25.5259 26.7469 23.3384V22.6092C26.7469 22.3905 26.8969 22.2446 27.1219 22.2446C27.3469 22.2446 27.4969 22.3905 27.4969 22.6092V23.3384C27.4969 25.9634 25.3219 28.078 22.6219 28.078ZM26.2969 16.0467C25.6969 16.0467 25.2469 15.6092 25.1719 15.0988C24.8719 11.6717 21.9469 9.11963 18.4219 9.11963C14.8969 9.11963 12.0469 11.6717 11.6719 15.0988C11.5969 15.6092 11.1469 16.0467 10.5469 16.0467C10.2469 16.0467 9.94688 15.9009 9.72188 15.6821C9.49688 15.4634 9.42188 15.1717 9.42188 14.8071C9.94687 10.3592 13.8469 6.93213 18.4969 6.93213C23.1469 6.93213 27.0469 10.3592 27.4219 14.88C27.4219 15.1717 27.3469 15.4634 27.1219 15.755C26.9719 15.9009 26.6719 16.0467 26.2969 16.0467ZM18.4969 8.39046C22.3969 8.39046 25.6219 11.2342 25.9969 15.0259C25.9969 15.1717 26.1469 15.3175 26.3719 15.3175C26.4469 15.3175 26.5969 15.2446 26.6719 15.1717C26.7469 15.0988 26.7469 15.0259 26.7469 14.88C26.3719 10.7238 22.8469 7.6613 18.4969 7.6613C14.1469 7.6613 10.6969 10.7967 10.2469 14.88C10.2469 14.953 10.2469 15.0988 10.3219 15.1717C10.5469 15.3905 10.9219 15.2446 10.9969 14.953C11.3719 11.2342 14.5969 8.39046 18.4969 8.39046Z" fill="black"/>
<path d="M10.6211 18.5988C10.3961 18.5988 10.2461 18.453 10.2461 18.2342V16.0467C10.2461 15.828 10.3961 15.6821 10.6211 15.6821C10.8461 15.6821 10.9961 15.828 10.9961 16.0467V18.2342C10.9961 18.453 10.8461 18.5988 10.6211 18.5988ZM26.3711 18.5988C26.1461 18.5988 25.9961 18.453 25.9961 18.2342V16.0467C25.9961 15.828 26.1461 15.6821 26.3711 15.6821C26.5961 15.6821 26.7461 15.828 26.7461 16.0467V18.2342C26.7461 18.453 26.5961 18.5988 26.3711 18.5988ZM16.6211 26.6196C16.5461 26.6196 16.4711 26.6196 16.4711 26.5467C16.3211 26.4738 16.2461 26.328 16.2461 26.255V25.1613H15.8711C15.2711 25.1613 14.7461 24.6509 14.7461 24.0675V21.1509C14.7461 20.5675 15.2711 20.0571 15.8711 20.0571H21.1211C21.7211 20.0571 22.2461 20.5675 22.2461 21.1509V24.0675C22.2461 24.6509 21.7211 25.1613 21.1211 25.1613H19.0211L16.8461 26.5467C16.7711 26.6196 16.6961 26.6196 16.6211 26.6196ZM15.8711 20.7863C15.6461 20.7863 15.4961 20.9321 15.4961 21.1509V24.0675C15.4961 24.2863 15.6461 24.4321 15.8711 24.4321H16.6211C16.8461 24.4321 16.9961 24.578 16.9961 24.7967V25.5988L18.6461 24.505C18.7211 24.4321 18.7961 24.4321 18.8711 24.4321H21.1211C21.3461 24.4321 21.4961 24.2863 21.4961 24.0675V21.1509C21.4961 20.9321 21.3461 20.7863 21.1211 20.7863H15.8711Z" fill="black"/>
<path d="M18.8711 35.3696C8.97109 35.3696 0.871094 27.4946 0.871094 17.8696C0.871094 8.24463 8.97109 0.369629 18.8711 0.369629C28.7711 0.369629 36.8711 8.24463 36.8711 17.8696C36.8711 27.4946 28.7711 35.3696 18.8711 35.3696ZM18.8711 1.0988C9.34609 1.0988 1.62109 8.60921 1.62109 17.8696C1.62109 27.13 9.34609 34.6405 18.8711 34.6405C28.3961 34.6405 36.1211 27.13 36.1211 17.8696C36.1211 8.60921 28.3961 1.0988 18.8711 1.0988Z" fill="black"/>
</g>
<defs>
<clipPath id="clip0_572_772">
<rect width="36" height="35" fill="white" transform="translate(0.871094 0.369629)"/>
</clipPath>
</defs>
</svg>
