<svg width="260" height="153" viewBox="0 0 260 153" fill="none" xmlns="http://www.w3.org/2000/svg">
<path d="M2 180C2.24195 179.351 4.56181 173.985 5.4493 172.017C7.8239 166.751 10.5226 161.62 13.1956 156.502C17.5042 148.252 30.432 119.749 33.7855 111.682C34.4099 113.095 36.1274 116.286 37.3893 118.538C39.9025 123.02 42.5721 127.41 45.1357 131.865C52.399 144.488 56.7897 158.522 63.2759 171.513C63.5205 172.003 62.4467 173.264 62.9774 173.13C63.6997 172.95 65.3687 166.806 65.5886 166.267C68.5071 159.111 71.5433 152.016 74.3276 144.805C81.9035 125.183 89.384 105.553 97.0641 85.9757C96.6553 85.4566 98.3155 87.8983 98.4109 88.0504C99.3725 89.5918 100.355 91.1155 101.343 92.6384C104.124 96.9222 107.187 100.997 110.112 105.182C110.495 105.73 110.65 103.957 110.93 103.35C111.602 101.891 112.23 100.415 112.908 98.9589C114.603 95.3215 116.261 91.6426 117.72 87.9009C122.431 75.8242 124.16 62.1645 129.949 50.568C129.953 50.5601 131.857 53.1521 131.973 53.336C133.259 55.3798 134.577 57.4111 135.829 59.4761C139.396 65.3553 141.996 71.697 144.927 77.8945C144.315 78.3765 146.641 82.2897 146.864 82.7655C149.121 87.5764 151.291 95.4666 155.12 99.3002C156.071 99.126 157.899 95.4745 158.385 94.8228C162.512 89.2894 166.59 83.7286 170.651 78.1456C186.111 56.8955 200.604 35.0848 214.477 12.8548C214.477 16.3533 218.24 21.4489 219.714 24.4292C223.376 31.8356 226.593 40.6783 231.414 47.4374C230.173 48.3023 234.029 41.5582 234.176 41.3071C236.167 37.9103 238.22 34.5329 240.309 31.1971C246.266 21.6851 253.312 12.2443 258 2" stroke="#FFCA42" stroke-width="4" stroke-miterlimit="1.5" stroke-linecap="round" stroke-linejoin="round"/>
</svg>
