<svg width="37" height="25" viewBox="0 0 37 25" fill="none" xmlns="http://www.w3.org/2000/svg">
<path d="M35.2741 0.0837402H1.49631C1.00742 0.0837402 0.607422 0.48374 0.607422 0.972629V23.1949C0.607422 23.6837 1.00742 24.0837 1.49631 24.0837H35.2741C35.763 24.0837 36.163 23.6837 36.163 23.1949V0.972629C36.163 0.48374 35.763 0.0837402 35.2741 0.0837402ZM33.1408 1.86152L18.3852 16.6171L3.62964 1.86152H33.1408ZM2.3852 3.10596L11.363 12.0837L2.3852 21.0615V3.10596ZM3.67409 22.306L12.6074 13.3726L17.763 18.5282C18.1185 18.8837 18.6519 18.8837 19.0074 18.5282L24.163 13.3726L33.0963 22.306H3.67409ZM34.3852 21.0615L25.4074 12.0837L34.3852 3.10596V21.0615Z" fill="#42446E"/>
</svg>
