<svg width="44" height="35" viewBox="0 0 44 35" fill="none" xmlns="http://www.w3.org/2000/svg">
<path d="M36.965 15.1724C33.9013 6.66543 21.9062 0.880021 13.4493 1.89366C9.59781 2.35533 1.27066 5.32852 1.10663 12.5799C1.07767 13.8589 1.26866 15.0218 1.54344 16.0914C4.56772 27.8614 15.2817 33.0263 25.7829 33.0913C27.3491 33.101 28.9689 32.9742 30.661 32.5079C31.9266 32.1592 33.2776 31.6012 34.5753 30.7891C38.374 28.4114 39.8906 24.687 39.6109 20.6504C39.2867 15.9704 36.7857 13.1341 34.1873 10.8714C31.9151 8.89277 29.4128 7.32002 26.7219 6.03858C21.6754 3.63526 15.7627 1.0335 9.05571 3.30381C6.12623 4.29547 1.74453 7.49883 1.25053 11.8538C0.715261 16.5728 3.88183 20.0292 6.02644 22.3284C11.8119 28.531 23.5418 33.884 33.1932 31.9448C34.2339 31.7356 35.2598 31.5731 36.3384 31.1306C37.1905 30.7809 38.0731 30.3307 38.928 29.7857C44.9861 25.9228 40.5838 18.7531 38.6686 16.8526C32.6437 10.8739 23.6866 2.09443 14.2609 3.3036" stroke="#FFCA42" stroke-width="2" stroke-miterlimit="1.5" stroke-linecap="round" stroke-linejoin="round"/>
</svg>
