<svg width="27" height="36" viewBox="0 0 27 36" fill="none" xmlns="http://www.w3.org/2000/svg">
<path d="M14.9648 17.8696C15.3975 17.8696 15.8204 17.7414 16.1801 17.501C16.5399 17.2606 16.8202 16.919 16.9858 16.5193C17.1514 16.1196 17.1947 15.6797 17.1103 15.2554C17.0259 14.8311 16.8175 14.4413 16.5116 14.1354C16.2057 13.8294 15.8159 13.6211 15.3916 13.5367C14.9673 13.4523 14.5274 13.4956 14.1277 13.6612C13.728 13.8267 13.3864 14.1071 13.146 14.4668C12.9056 14.8266 12.7773 15.2495 12.7773 15.6822C12.7791 16.2618 13.0101 16.8172 13.4199 17.227C13.8298 17.6369 14.3852 17.8679 14.9648 17.8696ZM14.9648 14.5884C15.1811 14.5884 15.3926 14.6526 15.5725 14.7727C15.7523 14.8929 15.8925 15.0637 15.9753 15.2636C16.0581 15.4634 16.0798 15.6834 16.0376 15.8955C15.9954 16.1077 15.8912 16.3026 15.7382 16.4555C15.5853 16.6085 15.3904 16.7127 15.1782 16.7549C14.966 16.7971 14.7461 16.7754 14.5463 16.6926C14.3464 16.6099 14.1756 16.4697 14.0554 16.2898C13.9352 16.1099 13.8711 15.8985 13.8711 15.6822C13.8711 15.3921 13.9863 15.1139 14.1914 14.9088C14.3965 14.7036 14.6747 14.5884 14.9648 14.5884ZM4.02734 12.9478V23.9728C4.02878 24.3842 4.19288 24.7784 4.48383 25.0694C4.77479 25.3604 5.16899 25.5244 5.58046 25.5259H22.1617C22.5732 25.5244 22.9674 25.3604 23.2583 25.0694C23.5493 24.7784 23.7134 24.3842 23.7148 23.9728V12.9478C23.7148 12.5127 23.542 12.0954 23.2343 11.7877C22.9266 11.48 22.5093 11.3072 22.0742 11.3072H5.66796C5.23284 11.3072 4.81554 11.48 4.50787 11.7877C4.20019 12.0954 4.02734 12.5127 4.02734 12.9478ZM13.4008 24.4321H5.66796C5.52292 24.4321 5.38382 24.3745 5.28126 24.272C5.1787 24.1694 5.12109 24.0303 5.12109 23.8853V23.7978L9.40858 19.5103C9.51243 19.413 9.64909 19.3583 9.79139 19.3571C9.93736 19.3562 10.0782 19.411 10.1851 19.5103L14.1555 23.4915L14.932 24.2681L15.0961 24.4321H13.4008ZM22.6211 23.8853C22.6211 24.0303 22.5634 24.1694 22.4609 24.272C22.3583 24.3745 22.2192 24.4321 22.0742 24.4321H16.6383L15.6211 23.415L17.8304 20.6587C17.9207 20.546 18.0518 20.4736 18.1952 20.4572C18.3387 20.4408 18.4827 20.4818 18.5961 20.5712L22.6211 23.7431V23.8853ZM22.6211 12.9478V22.354L19.2633 19.7181C18.9233 19.4498 18.491 19.3269 18.0607 19.3761C17.6305 19.4252 17.2371 19.6425 16.9664 19.9806L14.8445 22.6384L10.9508 18.7446C10.8001 18.5902 10.6197 18.4679 10.4204 18.3851C10.2211 18.3024 10.0071 18.261 9.79139 18.2634C9.57578 18.262 9.36209 18.3039 9.16295 18.3866C8.96381 18.4692 8.78327 18.591 8.63202 18.7446L5.12109 22.2556V12.9478C5.12109 12.8027 5.1787 12.6636 5.28126 12.5611C5.38382 12.4585 5.52292 12.4009 5.66796 12.4009H22.0742C22.2192 12.4009 22.3583 12.4585 22.4609 12.5611C22.5634 12.6636 22.6211 12.8027 22.6211 12.9478ZM26.832 8.18998L19.1758 0.533735C19.127 0.481141 19.0677 0.439365 19.0018 0.411105C18.9358 0.382845 18.8647 0.368731 18.7929 0.369673H3.48047C2.75526 0.369673 2.05977 0.657758 1.54697 1.17055C1.03418 1.68335 0.746094 2.37884 0.746094 3.10404V32.6353C0.746094 33.3605 1.03418 34.056 1.54697 34.5687C2.05977 35.0815 2.75526 35.3696 3.48047 35.3696H24.2617C24.9869 35.3696 25.6824 35.0815 26.1952 34.5687C26.708 34.056 26.9961 33.3605 26.9961 32.6353V8.57279C26.996 8.50121 26.9814 8.4304 26.9532 8.36461C26.925 8.29882 26.8838 8.23942 26.832 8.18998ZM19.3398 2.23998L25.1258 8.02591H20.9804C20.5453 8.02591 20.128 7.85306 19.8203 7.54539C19.5127 7.23771 19.3398 6.82041 19.3398 6.38529V2.23998ZM18.7929 8.02591H5.12109C4.97605 8.02591 4.83695 7.9683 4.73439 7.86574C4.63183 7.76318 4.57421 7.62408 4.57421 7.47904V5.29154C4.57421 5.1465 4.63183 5.0074 4.73439 4.90484C4.83695 4.80228 4.97605 4.74467 5.12109 4.74467H18.2461V6.38529C18.2461 6.97693 18.438 7.5526 18.7929 8.02591ZM25.9023 32.6353C25.9023 33.0704 25.7295 33.4877 25.4218 33.7954C25.1141 34.103 24.6968 34.2759 24.2617 34.2759H3.48047C3.04534 34.2759 2.62805 34.103 2.32037 33.7954C2.01269 33.4877 1.83984 33.0704 1.83984 32.6353V3.10404C1.83984 2.66892 2.01269 2.25163 2.32037 1.94395C2.62805 1.63627 3.04534 1.46342 3.48047 1.46342H18.2461V3.65092H5.12109C4.68597 3.65092 4.26867 3.82377 3.96099 4.13145C3.65332 4.43912 3.48047 4.85642 3.48047 5.29154V7.47904C3.48047 7.91416 3.65332 8.33146 3.96099 8.63913C4.26867 8.94681 4.68597 9.11966 5.12109 9.11966H20.4336C20.4809 9.11647 20.5277 9.1069 20.5725 9.09122L20.5976 9.09779C20.7179 9.10872 20.8492 9.11966 20.9804 9.11966H25.9023V32.6353ZM22.6211 30.9946H4.02734C3.8823 30.9946 3.7432 31.0522 3.64064 31.1548C3.53808 31.2574 3.48047 31.3965 3.48047 31.5415C3.48047 31.6865 3.53808 31.8256 3.64064 31.9282C3.7432 32.0308 3.8823 32.0884 4.02734 32.0884H22.6211C22.7661 32.0884 22.9052 32.0308 23.0078 31.9282C23.1103 31.8256 23.1679 31.6865 23.1679 31.5415C23.1679 31.3965 23.1103 31.2574 23.0078 31.1548C22.9052 31.0522 22.7661 30.9946 22.6211 30.9946ZM22.6211 27.7134H4.02734C3.8823 27.7134 3.7432 27.771 3.64064 27.8736C3.53808 27.9761 3.48047 28.1152 3.48047 28.2603C3.48047 28.4053 3.53808 28.5444 3.64064 28.647C3.7432 28.7495 3.8823 28.8071 4.02734 28.8071H22.6211C22.7661 28.8071 22.9052 28.7495 23.0078 28.647C23.1103 28.5444 23.1679 28.4053 23.1679 28.2603C23.1679 28.1152 23.1103 27.9761 23.0078 27.8736C22.9052 27.771 22.7661 27.7134 22.6211 27.7134Z" fill="black"/>
</svg>
