<svg width="11" height="12" viewBox="0 0 11 12" fill="none" xmlns="http://www.w3.org/2000/svg">
<path d="M10.7164 0.607288C10.6502 0.550962 10.5697 0.515076 10.4844 0.503812C10.399 0.492548 10.3123 0.50637 10.2344 0.543667L1.25855 4.86149C1.02648 4.97313 0.878906 5.20787 0.878906 5.4654V5.4654C0.878906 5.73734 1.04324 5.98232 1.29486 6.08547L4.51377 7.40503C4.70545 7.48361 4.86799 7.61977 4.97894 7.79472L7.13996 11.2021C7.25762 11.3876 7.46202 11.5 7.68169 11.5V11.5C7.97431 11.5 8.22984 11.302 8.30287 11.0186L10.8641 1.08182C10.8859 0.996505 10.8836 0.906602 10.8574 0.822587C10.8312 0.738573 10.7823 0.663907 10.7164 0.607288ZM8.23032 8.4336C8.0118 9.28143 6.8864 9.45898 6.41748 8.7196L5.89175 7.89064C5.65253 7.51345 5.69245 7.02337 5.98955 6.68987L8.58703 3.77419C8.7174 3.62785 8.70724 3.40423 8.56413 3.27032V3.27032C8.41598 3.1317 8.18274 3.1423 8.04778 3.29379L5.40491 6.26032C5.12274 6.57705 4.67143 6.68129 4.27894 6.52039L3.7732 6.31307C2.97189 5.98457 2.93858 4.86208 3.719 4.48665L8.09125 2.38331C8.85777 2.01457 9.70541 2.71036 9.49311 3.53404L8.23032 8.4336Z" fill="white"/>
</svg>
