<svg width="11" height="12" viewBox="0 0 11 12" fill="none" xmlns="http://www.w3.org/2000/svg">
<path d="M10.2164 0.607288C10.1502 0.550962 10.0697 0.515076 9.98438 0.503812C9.89904 0.492548 9.81234 0.50637 9.73438 0.543667L0.758547 4.86149C0.526477 4.97313 0.378906 5.20787 0.378906 5.4654V5.4654C0.378906 5.73734 0.543244 5.98232 0.794864 6.08547L4.01377 7.40503C4.20545 7.48361 4.36799 7.61977 4.47894 7.79472L6.63996 11.2021C6.75762 11.3876 6.96202 11.5 7.18169 11.5V11.5C7.47431 11.5 7.72984 11.302 7.80287 11.0186L10.3641 1.08182C10.3859 0.996505 10.3836 0.906602 10.3574 0.822587C10.3312 0.738573 10.2823 0.663907 10.2164 0.607288ZM7.73032 8.4336C7.5118 9.28143 6.3864 9.45898 5.91748 8.7196L5.39175 7.89064C5.15253 7.51345 5.19245 7.02337 5.48955 6.68987L8.08703 3.77419C8.2174 3.62785 8.20724 3.40423 8.06413 3.27032V3.27032C7.91598 3.1317 7.68274 3.1423 7.54778 3.29379L4.90491 6.26032C4.62274 6.57705 4.17143 6.68129 3.77894 6.52039L3.2732 6.31307C2.47189 5.98457 2.43858 4.86208 3.219 4.48665L7.59125 2.38331C8.35777 2.01457 9.20541 2.71036 8.99311 3.53404L7.73032 8.4336Z" fill="white"/>
</svg>
