<svg width="12" height="16" viewBox="0 0 12 16" fill="none" xmlns="http://www.w3.org/2000/svg">
<path d="M9.94854 11.238L10.6889 9.95562C10.9414 9.51834 11.0079 8.99756 10.8738 8.50785C10.7396 8.01814 10.4159 7.59961 9.97375 7.34434L9.23282 6.91656C9.08544 6.83147 8.97752 6.69196 8.93282 6.52873C8.88811 6.36549 8.91027 6.1919 8.99443 6.04614L9.4175 5.31335C9.66997 4.87606 9.73645 4.35528 9.60233 3.86557C9.46821 3.37586 9.14447 2.95734 8.70233 2.70207L7.77616 2.16734M4.18001 8.39607L7.88467 10.535M3.33385 9.86165L5.18618 10.9311M8.88756 2.80901L6.47953 1.41873C6.17278 1.24163 5.78167 1.34412 5.60652 1.64749L0.741136 10.0746C0.565982 10.378 0.672781 10.7679 0.979528 10.945L7.27746 14.5811C7.5842 14.7582 7.97531 14.6557 8.15046 14.3524L10.7947 9.77242C11.4679 8.60633 11.6452 7.21759 11.2876 5.9117C10.9299 4.6058 10.0666 3.48973 8.88756 2.80901Z" stroke="white" stroke-linecap="round" stroke-linejoin="round"/>
</svg>
