<svg width="25" height="25" viewBox="0 0 25 25" fill="none" xmlns="http://www.w3.org/2000/svg">
<path d="M17.9552 14.4957C17.7155 14.3759 16.1574 13.6568 15.9177 13.5369C15.678 13.4171 15.4383 13.4171 15.1986 13.6568C14.9589 13.8965 14.4795 14.6156 14.2398 14.8553C14.12 15.095 13.8803 15.095 13.6406 14.9751C12.8016 14.6156 11.9626 14.1362 11.2435 13.5369C10.6443 12.9377 10.045 12.2186 9.56565 11.4995C9.4458 11.2598 9.56564 11.0201 9.6855 10.9002C9.80535 10.7804 9.9252 10.5407 10.1649 10.4208C10.2847 10.301 10.4046 10.0613 10.4046 9.94142C10.5244 9.82157 10.5244 9.58187 10.4046 9.46202C10.2847 9.34217 9.6855 7.90397 9.44579 7.30471C9.32594 6.46576 9.08624 6.46576 8.84654 6.46576H8.24729C8.00759 6.46576 7.64804 6.70546 7.52819 6.82531C6.80909 7.54441 6.44954 8.38337 6.44954 9.34217C6.56939 10.4208 6.92894 11.4995 7.64804 12.4583C8.96639 14.3759 10.6443 15.9339 12.6817 16.8927C13.281 17.1324 13.7604 17.3721 14.3597 17.492C14.9589 17.7317 15.5582 17.7317 16.2773 17.6118C17.1162 17.492 17.8353 16.8927 18.3147 16.1736C18.5544 15.6942 18.5544 15.2148 18.4346 14.7354L17.9552 14.4957ZM20.9514 3.58936C16.2773 -1.0848 8.72669 -1.0848 4.05254 3.58936C0.217331 7.42456 -0.50177 13.2972 2.13493 17.9714L0.457031 24.0837L6.80909 22.4058C8.60684 23.3646 10.5244 23.844 12.442 23.844C19.0338 23.844 24.3072 18.5706 24.3072 11.9789C24.4271 8.86277 23.1087 5.86651 20.9514 3.58936ZM17.7155 20.3684C16.1574 21.3272 14.3597 21.9264 12.442 21.9264C10.6443 21.9264 8.96639 21.447 7.40834 20.6081L7.04879 20.3684L3.33344 21.3272L4.29224 17.7317L4.05254 17.3721C1.17613 12.5781 2.61433 6.58561 7.28849 3.58936C11.9626 0.593104 17.9552 2.15116 20.8316 6.70546C23.708 11.3796 22.3896 17.492 17.7155 20.3684Z" fill="#42446E"/>
</svg>
