<svg width="99" height="34" viewBox="0 0 99 34" fill="none" xmlns="http://www.w3.org/2000/svg">
<path d="M93.5846 14.1373C94.7996 18.3719 96.3114 24.1092 96.7817 28.4409M96.7817 28.4409C96.8361 28.9399 93.1355 28.2367 92.9677 28.1899C89.286 27.1659 85.8532 25.691 82.3871 24.1125M96.7817 28.4409C85.2841 7.45974 62.9945 -1.95238 47.0191 4.16915C45.4358 4.77586 43.7131 5.43787 42.0561 6.25009M42.0561 6.25009C39.4174 7.54358 36.9454 9.21806 35.4686 11.6569C34.1057 13.9078 33.2762 17.4103 34.6211 19.8015C37.1337 24.2684 43.8468 23.1032 45.8259 18.5606C47.5652 14.5687 45.7601 8.42244 42.0561 6.25009ZM42.0561 6.25009C41.978 6.20427 41.899 6.16021 41.8192 6.11799C22.5567 -4.07433 4.13014 13.8638 2.18014 31.6273" stroke="white" stroke-width="3" stroke-miterlimit="1.5" stroke-linecap="round" stroke-linejoin="round"/>
</svg>
